<svg version="1.1" id="Layer_1" xmlns="http://www.w3.org/2000/svg" xmlns:xlink="http://www.w3.org/1999/xlink" x="0px" y="0px"
	 width="100%" viewBox="0 0 250 250" enable-background="new 0 0 250 250" xml:space="preserve">
<path fill="#1B213F" opacity="1.000000" stroke="none" 
	d="
M171.000000,251.000000 
	C114.000000,251.000000 57.500008,251.000000 1.000008,251.000000 
	C1.000005,167.666672 1.000005,84.333351 1.000003,1.000019 
	C84.333321,1.000013 167.666641,1.000013 250.999969,1.000006 
	C250.999969,84.333313 250.999969,167.666626 250.999985,250.999969 
	C224.500000,251.000000 198.000000,251.000000 171.000000,251.000000 
M152.386719,56.007969 
	C147.511963,55.086525 142.625763,54.220875 137.766434,53.224216 
	C134.471390,52.548401 131.072678,52.049110 127.970833,50.832268 
	C122.380455,48.639179 122.326675,53.229897 120.780693,56.141399 
	C120.678078,56.334663 120.180344,56.318130 119.863060,56.386299 
	C113.871292,49.323471 113.797722,49.444649 104.608643,54.368561 
	C102.388069,55.558437 99.506439,55.578083 96.904404,55.976547 
	C93.666336,56.472420 90.408920,56.866508 87.147461,57.172436 
	C85.915298,57.288017 84.648567,57.034954 83.397591,56.949898 
	C73.138687,56.252365 62.117962,52.055111 54.481537,63.358727 
	C53.863056,64.274223 52.770557,65.029373 51.733177,65.471970 
	C48.646183,66.789032 47.907810,69.075531 47.942398,72.260437 
	C48.082920,85.200325 47.893085,98.144302 48.093872,111.082603 
	C48.133015,113.604698 49.177448,116.181549 50.095303,118.605492 
	C52.231827,124.247795 52.796196,129.701263 49.464329,135.150482 
	C48.645912,136.488998 48.103901,138.212845 48.066399,139.774689 
	C47.911961,146.206558 48.221626,152.654022 47.938702,159.077148 
	C47.648735,165.660095 46.417389,172.221909 46.425694,178.791946 
	C46.434006,185.364441 47.121082,191.994705 48.230370,198.476456 
	C48.636669,200.850540 50.726120,203.336990 52.710632,204.963272 
	C58.043091,209.333115 64.688675,208.406387 70.874008,208.127319 
	C78.543167,207.781326 86.436623,207.500320 93.752716,205.464539 
	C103.114960,202.859406 110.817940,210.521042 119.800049,208.298920 
	C120.278603,208.180527 120.983154,208.819595 121.535339,209.178574 
	C127.949768,213.348572 130.840622,213.190414 136.399658,208.072418 
	C139.374161,205.333923 142.233719,204.339874 146.315125,206.220474 
	C148.696030,207.317535 151.924622,207.261292 154.631241,206.833786 
	C162.159882,205.644714 168.656616,200.522171 176.735931,200.970444 
	C178.033020,201.042419 179.427078,199.231857 180.789062,198.310364 
	C181.982605,197.502838 183.092819,196.344498 184.413971,195.989975 
	C193.303085,193.604599 195.627335,183.617645 203.275269,179.831116 
	C203.602325,179.669205 203.736801,178.957397 203.815048,178.477951 
	C205.089447,170.669647 206.340256,162.857498 207.697495,154.417496 
	C207.790619,154.404114 208.994125,153.881912 209.977615,154.154236 
	C213.075287,155.012009 215.503708,154.919098 216.708847,151.308594 
	C216.911713,150.700867 217.996750,150.362320 218.705002,149.952667 
	C223.060104,147.433777 223.225983,144.620560 218.735489,141.958267 
	C210.293030,136.952942 201.314163,133.366577 191.235657,134.038879 
	C186.334686,134.365814 183.930038,131.258545 181.982712,127.716026 
	C179.989090,124.089294 183.999741,123.384476 185.596542,121.655769 
	C189.030243,117.938431 190.008286,118.123657 192.116089,122.524780 
	C193.559341,125.538300 196.234207,126.958672 198.340714,124.445938 
	C200.884781,121.411255 202.782455,117.483833 203.837143,113.635132 
	C205.350983,108.110725 205.915436,102.317917 206.759064,96.621025 
	C207.303528,92.944420 206.851212,89.814445 204.270645,86.462036 
	C200.442551,81.488953 197.782349,75.614677 194.664551,70.101654 
	C194.443146,69.710167 194.319595,68.980705 194.532410,68.669586 
	C196.890137,65.222885 193.965836,63.652256 192.156403,61.632294 
	C190.611145,59.907257 188.728043,58.289383 187.793991,56.256680 
	C186.274612,52.950176 184.637589,52.256767 181.776001,54.620846 
	C181.042374,55.226944 179.936874,55.937634 179.126175,55.810417 
	C170.475128,54.452831 161.890411,60.137352 152.386719,56.007969 
z"/>
<path fill="#19203F" opacity="1.000000" stroke="none" 
	d="
M152.814514,56.019398 
	C161.890411,60.137352 170.475128,54.452831 179.126175,55.810417 
	C179.936874,55.937634 181.042374,55.226944 181.776001,54.620846 
	C184.637589,52.256767 186.274612,52.950176 187.793991,56.256680 
	C188.728043,58.289383 190.611145,59.907257 192.156403,61.632294 
	C193.965836,63.652256 196.890137,65.222885 194.532410,68.669586 
	C194.319595,68.980705 194.443146,69.710167 194.664551,70.101654 
	C197.782349,75.614677 200.442551,81.488953 204.270645,86.462036 
	C206.851212,89.814445 207.303528,92.944420 206.759064,96.621025 
	C205.915436,102.317917 205.350983,108.110725 203.837143,113.635132 
	C202.782455,117.483833 200.884781,121.411255 198.340714,124.445938 
	C196.234207,126.958672 193.559341,125.538300 192.116089,122.524780 
	C190.008286,118.123657 189.030243,117.938431 185.596542,121.655769 
	C183.999741,123.384476 179.989090,124.089294 181.982712,127.716026 
	C183.930038,131.258545 186.334686,134.365814 191.235657,134.038879 
	C201.314163,133.366577 210.293030,136.952942 218.735489,141.958267 
	C223.225983,144.620560 223.060104,147.433777 218.705002,149.952667 
	C217.996750,150.362320 216.911713,150.700867 216.708847,151.308594 
	C215.503708,154.919098 213.075287,155.012009 209.977615,154.154236 
	C208.994125,153.881912 207.790619,154.404114 207.697495,154.417496 
	C206.340256,162.857498 205.089447,170.669647 203.815048,178.477951 
	C203.736801,178.957397 203.602325,179.669205 203.275269,179.831116 
	C195.627335,183.617645 193.303085,193.604599 184.413971,195.989975 
	C183.092819,196.344498 181.982605,197.502838 180.789062,198.310364 
	C179.427078,199.231857 178.033020,201.042419 176.735931,200.970444 
	C168.656616,200.522171 162.159882,205.644714 154.631241,206.833786 
	C151.924622,207.261292 148.696030,207.317535 146.315125,206.220474 
	C142.233719,204.339874 139.374161,205.333923 136.399658,208.072418 
	C130.840622,213.190414 127.949768,213.348572 121.535339,209.178574 
	C120.983154,208.819595 120.278603,208.180527 119.800049,208.298920 
	C110.817940,210.521042 103.114960,202.859406 93.752716,205.464539 
	C86.436623,207.500320 78.543167,207.781326 70.874008,208.127319 
	C64.688675,208.406387 58.043091,209.333115 52.710632,204.963272 
	C50.726120,203.336990 48.636669,200.850540 48.230370,198.476456 
	C47.121082,191.994705 46.434006,185.364441 46.425694,178.791946 
	C46.417389,172.221909 47.648735,165.660095 47.938702,159.077148 
	C48.221626,152.654022 47.911961,146.206558 48.066399,139.774689 
	C48.103901,138.212845 48.645912,136.488998 49.464329,135.150482 
	C52.796196,129.701263 52.231827,124.247795 50.095303,118.605492 
	C49.177448,116.181549 48.133015,113.604698 48.093872,111.082603 
	C47.893085,98.144302 48.082920,85.200325 47.942398,72.260437 
	C47.907810,69.075531 48.646183,66.789032 51.733177,65.471970 
	C52.770557,65.029373 53.863056,64.274223 54.481537,63.358727 
	C62.117962,52.055111 73.138687,56.252365 83.397591,56.949898 
	C84.648567,57.034954 85.915298,57.288017 87.147461,57.172436 
	C90.408920,56.866508 93.666336,56.472420 96.904404,55.976547 
	C99.506439,55.578083 102.388069,55.558437 104.608643,54.368561 
	C113.797722,49.444649 113.871292,49.323471 119.864723,56.392738 
	C120.180344,56.318130 120.678078,56.334663 120.780693,56.141399 
	C122.326675,53.229897 122.380455,48.639179 127.970833,50.832268 
	C131.072678,52.049110 134.471390,52.548401 137.766434,53.224216 
	C142.625763,54.220875 147.511963,55.086525 152.814514,56.019398 
M125.004829,84.026260 
	C125.004829,84.026260 125.044823,84.060234 124.524429,84.372353 
	C124.048592,85.201408 123.572762,86.030464 123.130035,87.021530 
	C123.130035,87.021530 122.979210,87.089302 122.301132,87.172974 
	C115.380836,93.218788 111.643730,100.842293 110.958328,110.572403 
	C110.949257,110.765244 110.940193,110.958084 110.007957,111.053413 
	C103.671097,110.946281 97.334229,110.839149 91.074760,109.832405 
	C90.993881,104.224617 90.912994,98.616837 90.934425,92.269676 
	C90.546768,90.868179 90.159119,89.466682 89.911957,87.443321 
	C90.214272,86.907089 90.516594,86.370865 91.422318,86.054993 
	C91.624786,86.123322 91.827255,86.191650 92.018570,87.076027 
	C92.020378,88.711105 92.022186,90.346184 92.101166,92.773438 
	C94.899391,95.870781 102.045235,95.990120 106.682182,92.866524 
	C109.446007,90.674156 112.209824,88.481789 115.694176,86.129585 
	C116.438072,85.631653 117.181969,85.133720 118.130455,84.146156 
	C118.154854,83.793541 118.179253,83.440918 118.630882,82.877884 
	C118.895729,82.671402 119.050621,82.401756 119.700325,81.756287 
	C121.273117,79.648926 122.611809,77.301201 124.472298,75.489243 
	C127.434052,72.604706 127.353279,69.967445 124.500114,66.350937 
	C121.993851,65.850121 119.487595,65.349312 116.544685,64.504990 
	C115.702866,64.616554 114.861053,64.728127 113.089691,64.986542 
	C104.720543,64.940933 96.351395,64.895325 87.284157,64.441750 
	C83.195587,64.576378 79.107025,64.711006 74.266495,64.994080 
	C73.505081,64.943741 72.743660,64.893410 71.636208,64.549545 
	C71.097687,64.643944 70.559174,64.738350 69.481758,65.068100 
	C69.713760,65.705338 69.945763,66.342575 69.995071,67.035843 
	C69.995071,67.035843 69.813850,67.096428 69.152771,67.191101 
	C67.427818,69.785683 65.702858,72.380264 63.390858,75.147667 
	C62.921452,75.764069 62.452042,76.380470 61.356430,77.462540 
	C60.903664,79.330254 60.078972,81.194000 60.058994,83.066330 
	C59.937080,94.493469 59.997829,105.922546 59.997845,117.350983 
	C59.997868,132.646011 60.115734,147.942261 59.955299,163.235611 
	C59.854439,172.850204 59.212669,182.459305 59.127823,192.073669 
	C59.113777,193.665100 60.387115,196.228745 61.643539,196.660294 
	C63.903664,197.436630 66.946236,199.925888 69.804077,196.008926 
	C70.868797,196.009598 71.933525,196.010269 73.580147,196.446030 
	C76.797081,197.330765 79.469521,197.186768 80.720360,192.899796 
	C83.475121,191.367020 86.229881,189.834244 88.984642,188.301468 
	C88.849037,187.859558 88.713432,187.417664 88.577835,186.975754 
	C84.720467,186.975754 80.863098,186.975754 77.007179,186.504318 
	C77.007179,186.504318 77.010071,186.032349 77.911346,186.011383 
	C81.646484,185.675079 85.381622,185.338760 89.379517,185.784897 
	C89.969818,184.956940 91.009232,184.161850 91.072693,183.295303 
	C91.347710,179.539795 91.337738,175.763428 91.607956,171.201263 
	C91.739525,162.437576 91.871101,153.673874 92.822151,144.951294 
	C95.272903,144.536682 97.768562,144.295334 100.165703,143.673904 
	C106.522423,142.025986 107.553726,142.899750 108.042686,149.714142 
	C108.420868,154.984726 109.009224,160.267151 109.940933,165.466034 
	C112.689735,180.804123 131.106369,200.233597 152.936188,196.786545 
	C157.157349,196.119995 160.990265,192.994736 165.504318,190.759674 
	C166.000778,190.504684 166.497253,190.249710 167.585922,189.838211 
	C168.059586,189.228897 168.533249,188.619583 169.585358,187.660217 
	C171.716782,185.492950 173.848206,183.325684 176.594666,180.841064 
	C179.107285,178.242401 181.619919,175.643738 184.731033,172.737778 
	C189.716797,167.491714 192.595108,161.299225 193.839249,153.597168 
	C193.839249,150.858307 193.839249,148.119431 193.839249,144.525681 
	C187.088242,145.010406 180.597824,145.476440 173.507721,146.281296 
	C169.510849,151.311890 164.710358,155.882294 163.553482,163.035995 
	C163.340012,163.310318 163.126541,163.584625 162.211853,163.852966 
	C161.748230,163.808563 161.284592,163.764160 160.195358,163.364105 
	C157.823578,163.512817 155.451797,163.661514 152.363235,163.920609 
	C151.885651,163.997421 151.408051,164.074234 150.329025,163.791992 
	C146.585403,160.177765 142.841797,156.563538 139.163971,152.420990 
	C139.075424,151.883362 138.986877,151.345734 139.055145,150.387344 
	C139.232208,150.113937 139.483231,149.965363 140.064606,149.786377 
	C140.298813,149.547531 140.307236,149.288635 139.926453,148.535477 
	C139.880081,148.374863 139.833694,148.214233 139.923889,147.114868 
	C139.892822,132.649643 139.861771,118.184425 139.926086,102.998734 
	C140.341690,101.649704 140.757294,100.300674 141.828812,98.745155 
	C152.007538,92.812080 162.300507,97.645241 163.976089,109.267174 
	C164.487717,112.815880 165.936218,115.407524 169.630997,115.801704 
	C175.153976,116.390945 180.666641,116.438217 185.674698,111.861855 
	C188.089508,110.268517 190.504303,108.675179 193.529999,106.641571 
	C193.761993,104.118507 193.994003,101.595444 194.078979,98.273354 
	C192.081131,88.645164 188.359146,80.023460 179.474075,73.898026 
	C179.025345,73.583878 178.576630,73.269730 177.806686,72.353287 
	C175.871063,71.284882 173.935440,70.216484 171.352005,68.825516 
	C169.564438,68.273476 167.776855,67.721436 165.168365,66.958771 
	C159.440216,67.036118 153.712051,67.113472 147.269653,67.373177 
	C141.023514,68.426628 136.149780,71.789841 132.027893,76.422676 
	C130.057190,78.637657 128.078201,80.845261 125.697556,83.321915 
	C125.438507,83.521843 125.223801,83.761497 125.004829,84.026260 
z"/>
<path fill="#0E1329" opacity="1.000000" stroke="none" 
	d="
M92.002670,144.910187 
	C91.871101,153.673874 91.739525,162.437576 91.428268,171.138977 
	C91.159058,166.359360 91.069527,161.642059 91.074173,156.503510 
	C91.143616,154.069748 91.118889,152.057205 91.139664,149.642914 
	C91.136009,148.168396 91.086845,147.095612 91.082260,145.567261 
	C91.038033,142.069016 90.949211,139.026321 90.906464,135.769806 
	C90.952522,135.556000 91.014671,135.122986 91.476784,135.033020 
	C98.047653,134.897858 104.158775,134.733398 110.264214,134.854904 
	C113.610199,134.921494 115.062683,133.806503 114.929802,130.283340 
	C114.730797,125.007339 114.961502,119.716225 114.877800,114.433624 
	C114.864761,113.610580 114.153770,112.798592 113.446899,111.979935 
	C112.395882,111.702545 111.663506,111.426727 110.931122,111.150909 
	C110.940193,110.958084 110.949257,110.765244 111.285355,110.268692 
	C112.143150,109.317673 112.849724,108.748154 113.176140,108.010437 
	C115.283485,103.247665 114.646622,97.150108 120.047821,94.407677 
	C119.601662,97.566414 119.154373,100.313438 118.518112,103.418259 
	C118.438347,110.824036 118.547554,117.872017 118.717392,125.347061 
	C118.737045,127.208488 118.696075,128.642853 118.479675,130.434692 
	C118.415047,135.169846 118.525841,139.547546 118.732941,144.229919 
	C118.907959,144.732544 118.986679,144.930481 118.967407,145.353851 
	C118.869415,145.579269 118.701042,146.041122 118.542908,146.260864 
	C118.508507,147.315674 118.632233,148.150726 118.820953,149.388489 
	C120.556686,155.210892 122.227417,160.630600 123.950500,166.404938 
	C127.910606,171.113174 131.818344,175.466782 136.060303,179.940979 
	C138.174133,181.065109 139.953751,182.068649 141.942322,183.395111 
	C144.185928,184.354187 146.179565,185.278793 148.262573,185.575089 
	C156.063477,186.684753 163.884598,187.507568 171.324509,183.006287 
	C171.840088,182.750198 172.013092,182.498810 172.403107,182.095886 
	C173.823273,181.739716 174.901443,181.449066 175.979614,181.158417 
	C173.848206,183.325684 171.716782,185.492950 168.999405,187.912109 
	C167.940201,188.774231 167.466965,189.384476 166.993713,189.994720 
	C166.497253,190.249710 166.000778,190.504684 164.857864,190.901413 
	C156.699600,192.906479 149.408066,195.146744 141.440018,192.102905 
	C128.648026,187.216263 118.890991,179.364563 115.167336,165.932159 
	C113.204201,158.850540 112.794624,151.302063 112.064934,143.926651 
	C111.522713,138.446075 110.982094,138.057434 105.965057,139.686600 
	C103.416763,140.514114 100.468468,140.595215 97.764656,140.339828 
	C94.092934,139.992981 91.836082,140.739700 92.002670,144.910187 
z"/>
<path fill="#15B39D" opacity="1.000000" stroke="none" 
	d="
M126.102966,83.056213 
	C128.078201,80.845261 130.057190,78.637657 132.027893,76.422676 
	C136.149780,71.789841 141.023514,68.426628 147.541229,67.676735 
	C147.558182,69.112579 147.118317,70.238617 147.079849,71.378189 
	C146.874573,77.460396 147.838333,83.714272 143.417297,89.015816 
	C142.827103,89.723549 143.801529,91.736023 144.046814,93.350082 
	C144.042221,93.555870 143.946533,93.958344 143.970459,93.978104 
	C143.994370,93.997864 143.941772,93.957085 143.665588,94.046021 
	C142.984772,94.752182 142.580139,95.369400 142.031235,96.281128 
	C141.648926,97.367638 141.410904,98.159637 141.172882,98.951645 
	C140.757294,100.300674 140.341690,101.649704 139.673523,103.462921 
	C139.154938,104.087883 138.947083,104.304459 138.598907,104.967484 
	C138.214966,110.242645 138.029556,115.127151 137.447174,120.007973 
	C134.789566,119.255882 131.865738,119.144478 130.407104,117.625801 
	C127.417419,114.513008 124.121880,113.591827 120.083115,113.535873 
	C120.682190,105.697723 121.323257,98.324348 121.982193,90.973770 
	C122.000061,90.996559 121.942406,91.002083 122.232834,90.829887 
	C122.688568,90.016464 122.853882,89.375237 123.012291,88.459427 
	C122.996666,87.819672 122.987938,87.454483 122.979218,87.089302 
	C122.979210,87.089302 123.130035,87.021530 123.366730,86.781982 
	C124.083893,85.715027 124.564354,84.887627 125.044815,84.060234 
	C125.044823,84.060234 125.004829,84.026260 125.270004,83.951981 
	C125.724449,83.603867 125.913712,83.330040 126.102966,83.056213 
z"/>
<path fill="#19ADDC" opacity="1.000000" stroke="none" 
	d="
M124.688492,67.100296 
	C127.353279,69.967445 127.434052,72.604706 124.472298,75.489243 
	C122.611809,77.301201 121.273117,79.648926 119.126816,81.677628 
	C114.397301,77.306786 109.159775,79.220703 104.198669,78.743988 
	C92.781853,77.646942 81.452675,75.637848 70.060806,73.564240 
	C69.960403,71.118546 69.887131,69.107483 69.813850,67.096428 
	C69.813850,67.096428 69.995071,67.035843 70.524551,67.010254 
	C74.840736,66.701981 78.625694,66.207146 82.414452,66.176025 
	C94.224998,66.079041 106.037384,66.109383 117.848038,66.209930 
	C120.130547,66.229362 122.408463,66.789551 124.688492,67.100296 
z"/>
<path fill="#0D112A" opacity="1.000000" stroke="none" 
	d="
M69.483307,67.143768 
	C69.887131,69.107483 69.960403,71.118546 69.992157,73.538330 
	C69.950638,73.947052 69.845566,74.049507 69.597931,74.372040 
	C69.252441,110.736977 69.136414,146.779373 69.144615,182.821762 
	C69.144859,183.901611 70.446434,184.981155 71.333755,186.060852 
	C71.526245,186.060852 71.910042,186.030899 71.938049,186.048889 
	C71.966049,186.066864 72.032593,186.068970 72.320145,186.291855 
	C74.073700,186.668411 75.539719,186.822083 77.005730,186.975754 
	C80.863098,186.975754 84.720467,186.975754 88.577835,186.975754 
	C88.713432,187.417664 88.849037,187.859558 88.984642,188.301468 
	C86.229881,189.834244 83.475121,191.367020 80.034164,192.957458 
	C78.899246,193.011368 78.450539,193.007629 77.593552,192.976562 
	C75.395561,192.636475 73.616570,192.224792 71.814133,192.029327 
	C66.212212,191.421768 65.083328,190.253418 65.015419,184.483902 
	C64.956909,179.512726 65.154846,174.532623 64.907135,169.573059 
	C64.829460,168.018005 63.673473,166.516800 63.010437,164.575653 
	C63.009480,162.776031 63.009148,161.391693 63.366875,159.849518 
	C64.149422,158.335693 64.916946,156.986771 64.945053,155.622635 
	C65.212212,142.655029 65.451790,129.684845 65.456390,116.715332 
	C65.457420,113.810493 64.508888,110.905319 63.929070,107.626884 
	C63.576794,105.504875 63.292961,103.756294 63.367161,101.849960 
	C63.994362,95.837631 64.291527,89.983894 64.465233,84.126488 
	C64.475998,83.763626 63.515739,83.371971 63.006832,82.565659 
	C63.005775,80.424774 63.005150,78.711952 63.205124,76.791885 
	C63.596443,76.048042 63.787174,75.511444 63.977901,74.974846 
	C65.702858,72.380264 67.427818,69.785683 69.483307,67.143768 
z"/>
<path fill="#141A36" opacity="1.000000" stroke="none" 
	d="
M92.412415,144.930740 
	C91.836082,140.739700 94.092934,139.992981 97.764656,140.339828 
	C100.468468,140.595215 103.416763,140.514114 105.965057,139.686600 
	C110.982094,138.057434 111.522713,138.446075 112.064934,143.926651 
	C112.794624,151.302063 113.204201,158.850540 115.167336,165.932159 
	C118.890991,179.364563 128.648026,187.216263 141.440018,192.102905 
	C149.408066,195.146744 156.699600,192.906479 164.606842,191.023407 
	C160.990265,192.994736 157.157349,196.119995 152.936188,196.786545 
	C131.106369,200.233597 112.689735,180.804123 109.940933,165.466034 
	C109.009224,160.267151 108.420868,154.984726 108.042686,149.714142 
	C107.553726,142.899750 106.522423,142.025986 100.165703,143.673904 
	C97.768562,144.295334 95.272903,144.536682 92.412415,144.930740 
z"/>
<path fill="#17A6D8" opacity="1.000000" stroke="none" 
	d="
M70.019287,73.972961 
	C81.452675,75.637848 92.781853,77.646942 104.198669,78.743988 
	C109.159775,79.220703 114.397301,77.306786 118.824432,81.833961 
	C119.050621,82.401756 118.895729,82.671402 118.009888,83.113831 
	C110.193489,83.563553 102.995674,83.722015 95.804497,84.033539 
	C94.191750,84.103401 92.602196,84.708954 90.964729,85.261612 
	C90.927490,85.455338 90.818909,85.834633 90.818909,85.834633 
	C90.516594,86.370865 90.214272,86.907089 89.615639,87.986397 
	C87.758286,89.139412 86.133232,90.388649 84.648155,90.239960 
	C80.111282,89.785713 75.628250,88.793617 71.077209,87.575897 
	C70.727524,84.435509 70.424911,81.729996 70.083405,78.608856 
	C69.978195,76.811989 69.911880,75.430748 69.845566,74.049507 
	C69.845566,74.049507 69.950638,73.947052 70.019287,73.972961 
z"/>
<path fill="#2AC186" opacity="1.000000" stroke="none" 
	d="
M179.979523,74.120728 
	C188.359146,80.023460 192.081131,88.645164 194.096542,99.094604 
	C194.582214,103.615814 193.221695,105.404823 189.235992,105.065765 
	C185.838776,104.776772 182.407257,104.891197 178.912628,104.453156 
	C178.537781,102.969063 178.100204,101.875580 177.967072,100.746216 
	C176.964951,92.245110 173.730927,83.569183 179.816162,75.571518 
	C180.069168,75.239006 179.933899,74.611046 179.979523,74.120728 
z"/>
<path fill="#141A36" opacity="1.000000" stroke="none" 
	d="
M63.009125,102.007706 
	C63.292961,103.756294 63.576794,105.504875 63.695663,107.968475 
	C63.353813,110.487144 63.027958,112.290436 63.023472,114.094528 
	C62.985413,129.398712 63.005890,144.703064 63.008812,160.007355 
	C63.009148,161.391693 63.009480,162.776031 63.006859,165.045258 
	C63.002487,172.738815 63.310848,179.566376 62.897110,186.349884 
	C62.591499,191.360504 63.928284,194.706619 69.005898,196.012344 
	C66.946236,199.925888 63.903664,197.436630 61.643539,196.660294 
	C60.387115,196.228745 59.113777,193.665100 59.127823,192.073669 
	C59.212669,182.459305 59.854439,172.850204 59.955299,163.235611 
	C60.115734,147.942261 59.997868,132.646011 59.997845,117.350983 
	C59.997829,105.922546 59.937080,94.493469 60.058994,83.066330 
	C60.078972,81.194000 60.903664,79.330254 61.925110,77.230667 
	C62.664032,76.998894 62.834278,76.999008 63.004528,76.999130 
	C63.005150,78.711952 63.005775,80.424774 63.004440,83.034584 
	C63.004692,89.956947 63.006908,95.982330 63.009125,102.007706 
z"/>
<path fill="#1ABA96" opacity="1.000000" stroke="none" 
	d="
M144.051407,93.144287 
	C143.801529,91.736023 142.827103,89.723549 143.417297,89.015816 
	C147.838333,83.714272 146.874573,77.460396 147.079849,71.378189 
	C147.118317,70.238617 147.558182,69.112579 147.898346,67.585556 
	C153.712051,67.113472 159.440216,67.036118 165.499557,67.432129 
	C165.220856,71.779472 164.094208,75.659981 164.143051,79.525642 
	C164.194229,83.576431 163.355820,86.212471 158.583588,86.837723 
	C153.120758,87.446060 148.111435,88.069794 144.967087,92.926346 
	C144.907242,92.934212 144.899216,93.054672 144.686981,93.074310 
	C144.474731,93.093956 144.051407,93.144287 144.051407,93.144287 
z"/>
<path fill="#22BC8D" opacity="1.000000" stroke="none" 
	d="
M158.989365,86.748344 
	C163.355820,86.212471 164.194229,83.576431 164.143051,79.525642 
	C164.094208,75.659981 165.220856,71.779472 165.910019,67.537445 
	C167.776855,67.721436 169.564438,68.273476 171.782227,69.304337 
	C174.184265,70.840622 176.156082,71.898102 178.127899,72.955574 
	C178.576630,73.269730 179.025345,73.583878 179.726807,74.009377 
	C179.933899,74.611046 180.069168,75.239006 179.816162,75.571518 
	C173.730927,83.569183 176.964951,92.245110 177.967072,100.746216 
	C178.100204,101.875580 178.537781,102.969063 178.526123,104.512512 
	C174.309830,105.494682 174.727386,102.144997 173.849075,99.669342 
	C171.293091,92.331718 165.400528,89.232025 158.989365,86.748344 
z"/>
<path fill="#0E1329" opacity="1.000000" stroke="none" 
	d="
M158.583588,86.837723 
	C165.400528,89.232025 171.293091,92.331718 173.643555,99.986038 
	C172.174255,105.149574 173.773697,107.200531 178.539169,107.033363 
	C183.326035,106.865456 188.125290,107.051125 192.919113,107.081833 
	C190.504303,108.675179 188.089508,110.268517 185.039185,111.744019 
	C181.101242,111.746262 177.799637,111.907684 174.496124,111.975731 
	C170.536240,112.057297 169.096191,109.956535 167.756882,106.215355 
	C166.368500,102.337013 163.661255,97.835052 160.251251,96.049362 
	C155.839722,93.739189 150.160400,93.850029 145.026932,92.918472 
	C148.111435,88.069794 153.120758,87.446060 158.583588,86.837723 
z"/>
<path fill="#76C34A" opacity="1.000000" stroke="none" 
	d="
M176.287140,180.999741 
	C174.901443,181.449066 173.823273,181.739716 172.388885,181.635956 
	C172.580444,177.004013 172.758957,172.677307 173.756485,168.548462 
	C175.571594,161.035446 177.873016,153.639908 180.407013,146.136108 
	C182.885986,146.118668 184.929504,146.160477 186.899399,146.565002 
	C184.965240,153.621552 182.956543,160.279572 181.323807,167.028534 
	C180.745453,169.419266 179.854080,172.619843 184.132553,173.045090 
	C181.619919,175.643738 179.107285,178.242401 176.287140,180.999741 
z"/>
<path fill="#162D56" opacity="1.000000" stroke="none" 
	d="
M89.116760,185.002457 
	C85.381622,185.338760 81.646484,185.675079 77.044571,186.007309 
	C74.796059,186.025146 73.414322,186.047058 72.032593,186.068970 
	C72.032593,186.068970 71.966049,186.066864 71.929550,185.790833 
	C71.676651,185.062195 71.460243,184.609589 71.191040,183.689896 
	C71.160606,179.498291 71.182968,175.773773 71.651535,172.034470 
	C78.012062,172.346817 83.926399,172.673965 89.910934,173.453186 
	C89.693008,177.604324 89.404884,181.303391 89.116760,185.002457 
z"/>
<path fill="#3BBA65" opacity="1.000000" stroke="none" 
	d="
M141.733383,183.072189 
	C139.953751,182.068649 138.174133,181.065109 136.116211,179.558563 
	C136.165070,177.044357 136.492218,175.033188 136.947708,172.627853 
	C139.207092,165.834473 136.845093,159.946869 135.323364,153.850891 
	C136.797256,153.450684 137.947708,153.199997 139.098175,152.949310 
	C142.841797,156.563538 146.585403,160.177765 150.390930,164.195709 
	C144.196976,169.181381 144.766785,176.210526 143.579666,182.798126 
	C142.718475,182.926926 142.225937,182.999557 141.733383,183.072189 
z"/>
<path fill="#1487C5" opacity="1.000000" stroke="none" 
	d="
M90.832108,93.009048 
	C90.912994,98.616837 90.993881,104.224617 90.804062,110.369751 
	C90.533356,110.907089 90.046844,111.011551 89.674225,110.853104 
	C83.239616,110.134613 77.177612,109.574585 71.070053,108.557579 
	C71.053825,104.736725 71.083176,101.372841 71.482330,98.082443 
	C75.497452,99.066902 79.108330,100.169044 82.797997,100.833786 
	C86.319702,101.468262 89.506348,101.256172 89.117111,96.140770 
	C89.041420,95.146118 90.227852,94.055435 90.832108,93.009048 
z"/>
<path fill="#7EC847" opacity="1.000000" stroke="none" 
	d="
M184.431793,172.891434 
	C179.854080,172.619843 180.745453,169.419266 181.323807,167.028534 
	C182.956543,160.279572 184.965240,153.621552 187.330811,146.509338 
	C189.410873,146.170258 190.985901,146.249573 192.724060,146.337097 
	C192.872238,149.203415 192.997543,151.627274 193.122849,154.051147 
	C192.595108,161.299225 189.716797,167.491714 184.431793,172.891434 
z"/>
<path fill="#111632" opacity="1.000000" stroke="none" 
	d="
M144.967087,92.926346 
	C150.160400,93.850029 155.839722,93.739189 160.251251,96.049362 
	C163.661255,97.835052 166.368500,102.337013 167.756882,106.215355 
	C169.096191,109.956535 170.536240,112.057297 174.496124,111.975731 
	C177.799637,111.907684 181.101242,111.746262 184.701416,111.811081 
	C180.666641,116.438217 175.153976,116.390945 169.630997,115.801704 
	C165.936218,115.407524 164.487717,112.815880 163.976089,109.267174 
	C162.300507,97.645241 152.007538,92.812080 141.500839,98.848396 
	C141.410904,98.159637 141.648926,97.367638 142.310059,96.190948 
	C143.136017,95.189873 143.538895,94.573479 143.941772,93.957085 
	C143.941772,93.957085 143.994370,93.997864 144.152954,93.852570 
	C144.545090,93.523666 144.740982,93.306129 144.899216,93.054672 
	C144.899216,93.054672 144.907242,92.934212 144.967087,92.926346 
z"/>
<path fill="#1493CD" opacity="1.000000" stroke="none" 
	d="
M90.883270,92.639359 
	C90.227852,94.055435 89.041420,95.146118 89.117111,96.140770 
	C89.506348,101.256172 86.319702,101.468262 82.797997,100.833786 
	C79.108330,100.169044 75.497452,99.066902 71.434296,97.629410 
	C71.052399,94.072182 71.088333,91.041489 71.124275,88.010788 
	C75.628250,88.793617 80.111282,89.785713 84.648155,90.239960 
	C86.133232,90.388649 87.758286,89.139412 89.545395,88.297333 
	C90.159119,89.466682 90.546768,90.868179 90.883270,92.639359 
z"/>
<path fill="#53BB56" opacity="1.000000" stroke="none" 
	d="
M160.820969,163.719757 
	C161.284592,163.764160 161.748230,163.808563 162.578033,164.261688 
	C162.320892,167.053802 161.768112,169.458435 161.059067,171.816040 
	C159.736435,176.213882 158.323013,180.584412 156.535065,184.993683 
	C153.732407,184.682755 151.342026,184.344452 149.028992,183.639221 
	C150.538376,179.822632 152.083618,176.414398 153.366959,172.910263 
	C154.410858,170.059937 155.140915,167.094696 156.411453,164.121521 
	C158.148834,163.948349 159.484894,163.834061 160.820969,163.719757 
z"/>
<path fill="#5EBD53" opacity="1.000000" stroke="none" 
	d="
M156.947357,184.966293 
	C158.323013,180.584412 159.736435,176.213882 161.059067,171.816040 
	C161.768112,169.458435 162.320892,167.053802 162.928619,164.264664 
	C163.126541,163.584625 163.340012,163.310318 164.102051,162.979004 
	C165.389160,162.592102 166.127716,162.262192 167.209961,162.065002 
	C167.895859,163.656158 168.781525,165.236267 168.486908,166.552124 
	C167.161026,172.474182 165.500229,178.321259 163.606567,184.342773 
	C161.151077,184.648895 159.049225,184.807587 156.947357,184.966293 
z"/>
<path fill="#48BA5B" opacity="1.000000" stroke="none" 
	d="
M156.010147,164.180405 
	C155.140915,167.094696 154.410858,170.059937 153.366959,172.910263 
	C152.083618,176.414398 150.538376,179.822632 148.696350,183.626007 
	C147.845291,183.920151 147.404221,183.860611 146.789459,183.639999 
	C146.360413,183.280426 146.076965,183.137527 145.456879,183.041138 
	C144.748306,182.935333 144.348312,182.838638 143.948303,182.741943 
	C144.766785,176.210526 144.196976,169.181381 150.691650,164.375229 
	C151.408051,164.074234 151.885651,163.997421 153.083282,163.942291 
	C154.538925,164.036102 155.274536,164.108246 156.010147,164.180405 
z"/>
<path fill="#0D112A" opacity="1.000000" stroke="none" 
	d="
M92.023987,91.981262 
	C92.022186,90.346184 92.020378,88.711105 92.484467,86.586945 
	C100.291458,86.161705 107.632553,86.225555 114.973640,86.289413 
	C112.209824,88.481789 109.446007,90.674156 106.002686,92.701767 
	C100.890129,92.351761 96.457054,92.166512 92.023987,91.981262 
z"/>
<path fill="#111632" opacity="1.000000" stroke="none" 
	d="
M69.404984,196.010635 
	C63.928284,194.706619 62.591499,191.360504 62.897110,186.349884 
	C63.310848,179.566376 63.002487,172.738815 63.007484,165.460556 
	C63.673473,166.516800 64.829460,168.018005 64.907135,169.573059 
	C65.154846,174.532623 64.956909,179.512726 65.015419,184.483902 
	C65.083328,190.253418 66.212212,191.421768 71.814133,192.029327 
	C73.616570,192.224792 75.395561,192.636475 77.477936,193.298248 
	C76.179810,194.435150 74.589027,195.223053 72.998245,196.010956 
	C71.933525,196.010269 70.868797,196.009598 69.404984,196.010635 
z"/>
<path fill="#2AC186" opacity="1.000000" stroke="none" 
	d="
M139.131073,152.685150 
	C137.947708,153.199997 136.797256,153.450684 135.114761,153.669250 
	C134.101593,153.084778 133.620468,152.532425 133.052155,151.663834 
	C131.966003,150.241638 130.967026,149.135651 129.809982,147.768250 
	C128.772186,146.668579 127.892448,145.830322 127.132141,144.655136 
	C130.416962,140.975510 134.144745,142.029083 137.899353,143.382812 
	C138.260544,146.138809 138.579453,148.473465 138.898346,150.808105 
	C138.986877,151.345734 139.075424,151.883362 139.131073,152.685150 
z"/>
<path fill="#111632" opacity="1.000000" stroke="none" 
	d="
M166.866287,161.932281 
	C166.127716,162.262192 165.389160,162.592102 164.344543,162.869507 
	C164.710358,155.882294 169.510849,151.311890 174.022934,146.154755 
	C174.538147,146.028198 174.957047,146.159149 174.980225,146.551758 
	C174.048096,152.894272 172.049561,158.277786 166.866287,161.932281 
z"/>
<path fill="#CFDADE" opacity="1.000000" stroke="none" 
	d="
M124.594299,66.725616 
	C122.408463,66.789551 120.130547,66.229362 117.848038,66.209930 
	C106.037384,66.109383 94.224998,66.079041 82.414452,66.176025 
	C78.625694,66.207146 74.840736,66.701981 70.615906,66.982239 
	C69.945763,66.342575 69.713760,65.705338 70.075272,65.021378 
	C71.106598,64.930786 71.544426,64.886932 71.982246,64.843071 
	C72.743660,64.893410 73.505081,64.943741 75.100098,64.987732 
	C79.949875,64.937500 83.966064,64.893608 87.982246,64.849716 
	C96.351395,64.895325 104.720543,64.940933 113.921600,64.980957 
	C115.496124,64.933090 116.238724,64.890793 116.981331,64.848495 
	C119.487595,65.349312 121.993851,65.850121 124.594299,66.725616 
z"/>
<path fill="#111632" opacity="1.000000" stroke="none" 
	d="
M122.640175,87.131134 
	C122.987938,87.454483 122.996666,87.819672 122.717522,88.637238 
	C122.267242,89.727112 122.104820,90.364601 121.942406,91.002083 
	C121.942406,91.002083 122.000061,90.996559 121.689453,91.087479 
	C120.934792,92.117584 120.490738,93.056770 120.046692,93.995964 
	C114.646622,97.150108 115.283485,103.247665 113.176140,108.010437 
	C112.849724,108.748154 112.143150,109.317673 111.301323,109.979553 
	C111.643730,100.842293 115.380836,93.218788 122.640175,87.131134 
z"/>
<path fill="#1B213F" opacity="1.000000" stroke="none" 
	d="
M193.224548,106.861702 
	C188.125290,107.051125 183.326035,106.865456 178.539169,107.033363 
	C173.773697,107.200531 172.174255,105.149574 173.576324,100.340515 
	C174.727386,102.144997 174.309830,105.494682 178.604401,104.886505 
	C182.407257,104.891197 185.838776,104.776772 189.235992,105.065765 
	C193.221695,105.404823 194.582214,103.615814 194.170044,99.494118 
	C193.994003,101.595444 193.761993,104.118507 193.224548,106.861702 
z"/>
<path fill="#609DC3" opacity="1.000000" stroke="none" 
	d="
M90.046844,111.011551 
	C90.046844,111.011551 90.533356,110.907089 90.765366,110.819550 
	C97.334229,110.839149 103.671097,110.946281 110.469543,111.102158 
	C111.663506,111.426727 112.395882,111.702545 113.511101,112.371704 
	C113.621483,114.276466 113.349030,115.787880 113.028198,116.854919 
	C113.147079,113.408852 111.326340,112.933075 108.854942,112.974510 
	C104.071686,113.054726 99.277802,113.140381 94.505951,112.889061 
	C92.990822,112.809273 91.531631,111.667404 90.046844,111.011551 
z"/>
<path fill="#72CDB9" opacity="1.000000" stroke="none" 
	d="
M138.976746,150.597717 
	C138.579453,148.473465 138.260544,146.138809 137.938019,142.958481 
	C137.899139,140.403076 137.863907,138.693344 137.872620,136.518982 
	C137.892410,130.706787 137.868271,125.359222 137.844147,120.011665 
	C138.029556,115.127151 138.214966,110.242645 138.641525,105.475052 
	C138.908218,117.651855 138.895218,129.712067 138.995972,141.771317 
	C139.013489,143.867462 139.511322,145.959595 139.787308,148.053589 
	C139.833694,148.214233 139.880081,148.374863 139.925293,149.001816 
	C139.924149,149.468155 139.808212,149.941635 139.808212,149.941635 
	C139.483231,149.965363 139.232208,150.113937 138.976746,150.597717 
z"/>
<path fill="#75A5A0" opacity="1.000000" stroke="none" 
	d="
M139.855591,147.584229 
	C139.511322,145.959595 139.013489,143.867462 138.995972,141.771317 
	C138.895218,129.712067 138.908218,117.651855 138.840027,105.084412 
	C138.947083,104.304459 139.154938,104.087883 139.625854,103.823151 
	C139.861771,118.184425 139.892822,132.649643 139.855591,147.584229 
z"/>
<path fill="#141A36" opacity="1.000000" stroke="none" 
	d="
M92.062576,92.377350 
	C96.457054,92.166512 100.890129,92.351761 105.661568,92.771278 
	C102.045235,95.990120 94.899391,95.870781 92.062576,92.377350 
z"/>
<path fill="#CFDADE" opacity="1.000000" stroke="none" 
	d="
M89.248138,185.393677 
	C89.404884,181.303391 89.693008,177.604324 89.986084,173.014069 
	C89.945381,169.741974 89.899742,167.361038 89.929901,164.556122 
	C90.330467,161.729660 90.655235,159.327194 90.980003,156.924744 
	C91.069527,161.642059 91.159058,166.359360 91.339989,171.535660 
	C91.337738,175.763428 91.347710,179.539795 91.072693,183.295303 
	C91.009232,184.161850 89.969818,184.956940 89.248138,185.393677 
z"/>
<path fill="#1EA0B5" opacity="1.000000" stroke="none" 
	d="
M91.001968,85.067886 
	C92.602196,84.708954 94.191750,84.103401 95.804497,84.033539 
	C102.995674,83.722015 110.193489,83.563553 117.796280,83.219040 
	C118.179253,83.440918 118.154854,83.793541 117.560944,84.465263 
	C108.328285,84.878876 99.665123,84.973381 91.001968,85.067886 
z"/>
<path fill="#CFDADE" opacity="1.000000" stroke="none" 
	d="
M174.957047,146.159149 
	C174.957047,146.159149 174.538147,146.028198 174.322784,145.985321 
	C180.597824,145.476440 187.088242,145.010406 193.839249,144.525681 
	C193.839249,148.119431 193.839249,150.858307 193.481049,153.824158 
	C192.997543,151.627274 192.872238,149.203415 192.724060,146.337097 
	C190.985901,146.249573 189.410873,146.170258 187.404419,146.146622 
	C184.929504,146.160477 182.885986,146.118668 179.992035,146.078934 
	C177.746735,146.107056 176.351898,146.133102 174.957047,146.159149 
z"/>
<path fill="#72CDB9" opacity="1.000000" stroke="none" 
	d="
M90.964729,85.261612 
	C99.665123,84.973381 108.328285,84.878876 117.458656,84.710075 
	C117.181969,85.133720 116.438072,85.631653 115.333908,86.209503 
	C107.632553,86.225555 100.291458,86.161705 92.490051,86.178909 
	C91.827255,86.191650 91.624786,86.123322 91.120613,85.944809 
	C90.818909,85.834633 90.927490,85.455338 90.964729,85.261612 
z"/>
<path fill="#141A36" opacity="1.000000" stroke="none" 
	d="
M73.289200,196.228485 
	C74.589027,195.223053 76.179810,194.435150 77.886208,193.325562 
	C78.450539,193.007629 78.899246,193.011368 79.684769,193.025894 
	C79.469521,197.186768 76.797081,197.330765 73.289200,196.228485 
z"/>
<path fill="#141A36" opacity="1.000000" stroke="none" 
	d="
M87.633202,64.645737 
	C83.966064,64.893608 79.949875,64.937500 75.476074,64.913513 
	C79.107025,64.711006 83.195587,64.576378 87.633202,64.645737 
z"/>
<path fill="#2AC186" opacity="1.000000" stroke="none" 
	d="
M177.967285,72.654434 
	C176.156082,71.898102 174.184265,70.840622 172.106140,69.465614 
	C173.935440,70.216484 175.871063,71.284882 177.967285,72.654434 
z"/>
<path fill="#111632" opacity="1.000000" stroke="none" 
	d="
M156.411453,164.121521 
	C155.274536,164.108246 154.538925,164.036102 153.441666,163.887085 
	C155.451797,163.661514 157.823578,163.512817 160.508163,163.541931 
	C159.484894,163.834061 158.148834,163.948349 156.411453,164.121521 
z"/>
<path fill="#1B213F" opacity="1.000000" stroke="none" 
	d="
M72.320145,186.291855 
	C73.414322,186.047058 74.796059,186.025146 76.593933,186.017792 
	C77.010071,186.032349 77.007179,186.504318 77.006454,186.740036 
	C75.539719,186.822083 74.073700,186.668411 72.320145,186.291855 
z"/>
<path fill="#111632" opacity="1.000000" stroke="none" 
	d="
M124.784622,84.216293 
	C124.564354,84.887627 124.083893,85.715027 123.350174,86.700974 
	C123.572762,86.030464 124.048592,85.201408 124.784622,84.216293 
z"/>
<path fill="#111632" opacity="1.000000" stroke="none" 
	d="
M63.205124,76.791885 
	C62.834278,76.999008 62.664032,76.998894 62.238213,76.997833 
	C62.452042,76.380470 62.921452,75.764069 63.684380,75.061256 
	C63.787174,75.511444 63.596443,76.048042 63.205124,76.791885 
z"/>
<path fill="#141A36" opacity="1.000000" stroke="none" 
	d="
M167.289825,189.916473 
	C167.466965,189.384476 167.940201,188.774231 168.710190,188.087128 
	C168.533249,188.619583 168.059586,189.228897 167.289825,189.916473 
z"/>
<path fill="#141A36" opacity="1.000000" stroke="none" 
	d="
M116.763008,64.676743 
	C116.238724,64.890793 115.496124,64.933090 114.386375,64.907539 
	C114.861053,64.728127 115.702866,64.616554 116.763008,64.676743 
z"/>
<path fill="#141A36" opacity="1.000000" stroke="none" 
	d="
M71.809227,64.696304 
	C71.544426,64.886932 71.106598,64.930786 70.344711,64.903702 
	C70.559174,64.738350 71.097687,64.643944 71.809227,64.696304 
z"/>
<path fill="#141A36" opacity="1.000000" stroke="none" 
	d="
M139.936401,149.864014 
	C139.808212,149.941635 139.924149,149.468155 140.007019,149.238922 
	C140.307236,149.288635 140.298813,149.547531 139.936401,149.864014 
z"/>
<path fill="#111632" opacity="1.000000" stroke="none" 
	d="
M125.900269,83.189064 
	C125.913712,83.330040 125.724449,83.603867 125.294312,83.959290 
	C125.223801,83.761497 125.438507,83.521843 125.900269,83.189064 
z"/>
<path fill="#154276" opacity="1.000000" stroke="none" 
	d="
M91.074181,156.503510 
	C90.655235,159.327194 90.330467,161.729660 89.533524,164.551788 
	C83.256180,164.945908 77.451004,164.920364 71.528069,164.505905 
	C71.302505,158.734604 71.194710,153.352188 71.293976,148.272522 
	C72.081253,151.837601 73.916847,153.601105 77.313461,152.965790 
	C81.927727,152.102753 86.502464,151.028397 91.094154,150.044662 
	C91.118889,152.057205 91.143616,154.069748 91.074181,156.503510 
z"/>
<path fill="#6ABF50" opacity="1.000000" stroke="none" 
	d="
M174.980225,146.551758 
	C176.351898,146.133102 177.746735,146.107056 179.556549,146.138184 
	C177.873016,153.639908 175.571594,161.035446 173.756485,168.548462 
	C172.758957,172.677307 172.580444,177.004013 172.046890,181.701447 
	C172.013092,182.498810 171.840088,182.750198 170.925797,182.990997 
	C168.193069,183.442749 166.076614,183.819046 163.960175,184.195358 
	C165.500229,178.321259 167.161026,172.474182 168.486908,166.552124 
	C168.781525,165.236267 167.895859,163.656158 167.209961,162.065002 
	C172.049561,158.277786 174.048096,152.894272 174.980225,146.551758 
z"/>
<path fill="#1D84AE" opacity="1.000000" stroke="none" 
	d="
M127.012711,144.992065 
	C127.892448,145.830322 128.772186,146.668579 129.653320,148.088806 
	C128.720413,151.557251 127.801537,154.448792 126.847534,157.328705 
	C125.882500,160.241898 124.882706,163.143570 123.898148,166.050293 
	C122.227417,160.630600 120.556686,155.210892 118.894333,149.022400 
	C118.835480,147.516113 118.768257,146.778610 118.701042,146.041122 
	C118.701042,146.041122 118.869415,145.579269 119.194107,145.136444 
	C119.720497,144.105591 119.922195,143.517548 120.482742,142.964294 
	C122.898636,143.663422 124.955673,144.327744 127.012711,144.992065 
z"/>
<path fill="#154C83" opacity="1.000000" stroke="none" 
	d="
M91.139664,149.642914 
	C86.502464,151.028397 81.927727,152.102753 77.313461,152.965790 
	C73.916847,153.601105 72.081253,151.837601 71.257591,147.838287 
	C71.043472,145.056564 71.072823,143.011826 71.308609,141.275940 
	C72.676659,142.712494 73.731552,144.656998 75.018555,144.825165 
	C80.319916,145.517853 85.691750,145.671188 91.037674,146.022827 
	C91.086845,147.095612 91.136009,148.168396 91.139664,149.642914 
z"/>
<path fill="#15568F" opacity="1.000000" stroke="none" 
	d="
M91.082260,145.567261 
	C85.691750,145.671188 80.319916,145.517853 75.018555,144.825165 
	C73.731552,144.656998 72.676659,142.712494 71.273972,140.898987 
	C71.069328,139.454880 71.105736,138.696594 71.571136,137.952164 
	C73.932755,138.210922 75.859268,138.534805 77.799232,138.684952 
	C82.401855,139.041199 87.207825,140.262054 90.860397,135.983627 
	C90.949211,139.026321 91.038033,142.069016 91.082260,145.567261 
z"/>
<path fill="#14609F" opacity="1.000000" stroke="none" 
	d="
M90.906456,135.769806 
	C87.207825,140.262054 82.401855,139.041199 77.799232,138.684952 
	C75.859268,138.534805 73.932755,138.210922 71.530380,137.548920 
	C70.987701,136.049255 70.914757,134.966721 70.887871,133.500397 
	C70.999428,132.088013 71.064926,131.059418 71.507553,130.101501 
	C77.957573,131.147552 84.030464,132.122940 90.129669,133.385895 
	C90.442215,134.156631 90.728439,134.639801 91.014671,135.122986 
	C91.014671,135.122986 90.952522,135.556000 90.906456,135.769806 
z"/>
<path fill="#1EA0B5" opacity="1.000000" stroke="none" 
	d="
M123.950500,166.404938 
	C124.882706,163.143570 125.882500,160.241898 126.847534,157.328705 
	C127.801537,154.448792 128.720413,151.557251 129.811371,148.350250 
	C130.967026,149.135651 131.966003,150.241638 132.666107,151.697540 
	C131.115158,154.304916 129.131744,156.445740 128.749512,158.841965 
	C127.647026,165.753494 131.630295,172.247147 136.819351,173.022018 
	C136.492218,175.033188 136.165070,177.044357 135.782013,179.437958 
	C131.818344,175.466782 127.910606,171.113174 123.950500,166.404938 
z"/>
<path fill="#687888" opacity="1.000000" stroke="none" 
	d="
M91.476784,135.033020 
	C90.728439,134.639801 90.442215,134.156631 90.589294,133.362793 
	C96.489929,133.033463 101.979164,132.704498 107.418022,133.088669 
	C112.270897,133.431458 113.740021,131.500366 112.933365,126.613998 
	C112.948189,123.804176 112.914925,121.441193 112.930893,118.781784 
	C113.012276,118.090004 113.044426,117.694649 113.076576,117.299294 
	C113.349030,115.787880 113.621483,114.276466 113.829742,112.373276 
	C114.153770,112.798592 114.864761,113.610580 114.877800,114.433624 
	C114.961502,119.716225 114.730797,125.007339 114.929802,130.283340 
	C115.062683,133.806503 113.610199,134.921494 110.264214,134.854904 
	C104.158775,134.733398 98.047653,134.897858 91.476784,135.033020 
z"/>
<path fill="#75A5A0" opacity="1.000000" stroke="none" 
	d="
M120.123886,142.929489 
	C119.922195,143.517548 119.720497,144.105591 119.292099,144.911041 
	C118.986679,144.930481 118.907959,144.732544 118.822914,143.780182 
	C118.762756,138.709595 118.708923,134.393417 118.655090,130.077225 
	C118.696075,128.642853 118.737045,127.208488 118.809113,124.894333 
	C118.795822,117.029846 118.751457,110.045158 118.707085,103.060463 
	C119.154373,100.313438 119.601662,97.566414 120.047821,94.407677 
	C120.490738,93.056770 120.934792,92.117584 121.671585,91.064690 
	C121.323257,98.324348 120.682190,105.697723 120.037109,114.000153 
	C120.071831,119.616478 120.110558,124.303726 120.101517,129.454315 
	C120.077126,134.254929 120.100502,138.592209 120.123886,142.929489 
z"/>
<path fill="#75A5A0" opacity="1.000000" stroke="none" 
	d="
M163.606567,184.342773 
	C166.076614,183.819046 168.193069,183.442749 170.708221,183.081711 
	C163.884598,187.507568 156.063477,186.684753 148.262573,185.575089 
	C146.179565,185.278793 144.185928,184.354187 141.942322,183.395111 
	C142.225937,182.999557 142.718475,182.926926 143.579666,182.798126 
	C144.348312,182.838638 144.748306,182.935333 145.626160,183.215485 
	C146.352905,183.613129 146.639282,183.747177 146.963135,183.801056 
	C147.404221,183.860611 147.845291,183.920151 148.619019,183.992920 
	C151.342026,184.344452 153.732407,184.682755 156.535065,184.993683 
	C159.049225,184.807587 161.151077,184.648895 163.606567,184.342773 
z"/>
<path fill="#1B213F" opacity="1.000000" stroke="none" 
	d="
M118.518112,103.418259 
	C118.751457,110.045158 118.795822,117.029846 118.748482,124.467270 
	C118.547554,117.872017 118.438347,110.824036 118.518112,103.418259 
z"/>
<path fill="#1B213F" opacity="1.000000" stroke="none" 
	d="
M118.479675,130.434692 
	C118.708923,134.393417 118.762756,138.709595 118.726608,143.475510 
	C118.525841,139.547546 118.415047,135.169846 118.479675,130.434692 
z"/>
<path fill="#1B213F" opacity="1.000000" stroke="none" 
	d="
M118.542908,146.260864 
	C118.768257,146.778610 118.835480,147.516113 118.829330,148.619690 
	C118.632233,148.150726 118.508507,147.315674 118.542908,146.260864 
z"/>
<path fill="#18B492" opacity="1.000000" stroke="none" 
	d="
M120.149292,128.990982 
	C120.110558,124.303726 120.071831,119.616478 120.079102,114.464935 
	C124.121880,113.591827 127.417419,114.513008 130.407104,117.625801 
	C131.865738,119.144478 134.789566,119.255882 137.447174,120.007973 
	C137.868271,125.359222 137.892410,130.706787 137.547150,136.446320 
	C131.501587,134.222519 125.825439,131.606750 120.149292,128.990982 
z"/>
<path fill="#0E1329" opacity="1.000000" stroke="none" 
	d="
M143.665588,94.046021 
	C143.538895,94.573479 143.136017,95.189873 142.454315,95.896454 
	C142.580139,95.369400 142.984772,94.752182 143.665588,94.046021 
z"/>
<path fill="#75A5A0" opacity="1.000000" stroke="none" 
	d="
M122.232834,90.829887 
	C122.104820,90.364601 122.267242,89.727112 122.724426,88.911819 
	C122.853882,89.375237 122.688568,90.016464 122.232834,90.829887 
z"/>
<path fill="#0E1329" opacity="1.000000" stroke="none" 
	d="
M144.686981,93.074310 
	C144.740982,93.306129 144.545090,93.523666 144.129028,93.832809 
	C143.946533,93.958344 144.042221,93.555870 144.046814,93.350082 
	C144.051407,93.144287 144.474731,93.093956 144.686981,93.074310 
z"/>
<path fill="#65696E" opacity="1.000000" stroke="none" 
	d="
M70.841812,133.884186 
	C70.914757,134.966721 70.987701,136.049255 71.101395,137.535034 
	C71.105736,138.696594 71.069328,139.454880 71.067543,140.590134 
	C71.072823,143.011826 71.043472,145.056564 71.050522,147.535553 
	C71.194710,153.352188 71.302505,158.734604 71.393402,164.875122 
	C71.319443,167.771927 71.262383,169.910583 71.205330,172.049255 
	C71.182968,175.773773 71.160606,179.498291 71.142136,184.004456 
	C71.144447,185.211014 71.142860,185.635925 71.141266,186.060852 
	C70.446434,184.981155 69.144859,183.901611 69.144615,182.821762 
	C69.136414,146.779373 69.252441,110.736977 69.597931,74.372040 
	C69.911880,75.430748 69.978195,76.811989 70.036041,79.071869 
	C70.024574,96.502495 70.001396,113.054543 70.054337,129.606369 
	C70.058891,131.033127 70.567390,132.458282 70.841812,133.884186 
z"/>
<path fill="#111632" opacity="1.000000" stroke="none" 
	d="
M63.366875,159.849518 
	C63.005890,144.703064 62.985413,129.398712 63.023472,114.094528 
	C63.027958,112.290436 63.353813,110.487144 63.764107,108.341896 
	C64.508888,110.905319 65.457420,113.810493 65.456390,116.715332 
	C65.451790,129.684845 65.212212,142.655029 64.945053,155.622635 
	C64.916946,156.986771 64.149422,158.335693 63.366875,159.849518 
z"/>
<path fill="#111632" opacity="1.000000" stroke="none" 
	d="
M63.367157,101.849960 
	C63.006908,95.982330 63.004692,89.956947 63.004868,83.462646 
	C63.515739,83.371971 64.475998,83.763626 64.465233,84.126488 
	C64.291527,89.983894 63.994362,95.837631 63.367157,101.849960 
z"/>
<path fill="#1B213F" opacity="1.000000" stroke="none" 
	d="
M71.333755,186.060852 
	C71.142860,185.635925 71.144447,185.211014 71.194939,184.471527 
	C71.460243,184.609589 71.676651,185.062195 71.901550,185.772858 
	C71.910042,186.030899 71.526245,186.060852 71.333755,186.060852 
z"/>
<path fill="#75A5A0" opacity="1.000000" stroke="none" 
	d="
M70.887863,133.500397 
	C70.567390,132.458282 70.058891,131.033127 70.054337,129.606369 
	C70.001396,113.054543 70.024574,96.502495 70.074936,79.487495 
	C70.424911,81.729996 70.727524,84.435509 71.077209,87.575897 
	C71.088333,91.041489 71.052399,94.072182 71.064484,97.555923 
	C71.083176,101.372841 71.053825,104.736725 71.024246,108.999374 
	C71.059158,112.269875 71.094315,114.641609 71.080215,117.460182 
	C71.061127,120.609589 71.091301,123.312157 71.075729,126.414589 
	C71.063454,127.886574 71.096939,128.958710 71.130424,130.030838 
	C71.064926,131.059418 70.999428,132.088013 70.887863,133.500397 
z"/>
<path fill="#163463" opacity="1.000000" stroke="none" 
	d="
M71.651535,172.034470 
	C71.262383,169.910583 71.319443,167.771927 71.511169,165.264038 
	C77.451004,164.920364 83.256180,164.945908 89.457718,164.975784 
	C89.899742,167.361038 89.945381,169.741974 89.915878,172.562012 
	C83.926399,172.673965 78.012062,172.346817 71.651535,172.034470 
z"/>
<path fill="#19B7BE" opacity="1.000000" stroke="none" 
	d="
M136.947708,172.627853 
	C131.630295,172.247147 127.647026,165.753494 128.749512,158.841965 
	C129.131744,156.445740 131.115158,154.304916 132.753281,152.013763 
	C133.620468,152.532425 134.101593,153.084778 134.791321,153.818787 
	C136.845093,159.946869 139.207092,165.834473 136.947708,172.627853 
z"/>
<path fill="#127ABF" opacity="1.000000" stroke="none" 
	d="
M71.129471,117.013351 
	C71.094315,114.641609 71.059158,112.269875 71.069809,109.456345 
	C77.177612,109.574585 83.239616,110.134613 89.674225,110.853104 
	C91.531631,111.667404 92.990822,112.809273 94.505951,112.889061 
	C99.277802,113.140381 104.071686,113.054726 108.854942,112.974510 
	C111.326340,112.933075 113.147079,113.408852 113.028198,116.854919 
	C113.044426,117.694649 113.012276,118.090004 112.585449,118.877701 
	C108.401421,120.082916 104.511505,121.889030 100.842079,121.517525 
	C90.887901,120.509727 81.027222,118.578461 71.129471,117.013351 
z"/>
<path fill="#53BB56" opacity="1.000000" stroke="none" 
	d="
M146.789459,183.639999 
	C146.639282,183.747177 146.352905,183.613129 145.934723,183.224594 
	C146.076965,183.137527 146.360413,183.280426 146.789459,183.639999 
z"/>
<path fill="#1EB689" opacity="1.000000" stroke="none" 
	d="
M120.101517,129.454315 
	C125.825439,131.606750 131.501587,134.222519 137.503204,136.910965 
	C137.863907,138.693344 137.899139,140.403076 137.895706,142.537125 
	C134.144745,142.029083 130.416962,140.975510 127.132141,144.655136 
	C124.955673,144.327744 122.898636,143.663422 120.482742,142.964294 
	C120.100502,138.592209 120.077126,134.254929 120.101517,129.454315 
z"/>
<path fill="#136BAC" opacity="1.000000" stroke="none" 
	d="
M71.507553,130.101501 
	C71.096939,128.958710 71.063454,127.886574 71.471451,126.436905 
	C85.570374,126.393188 99.227829,126.727013 112.885277,127.060837 
	C113.740021,131.500366 112.270897,133.431458 107.418022,133.088669 
	C101.979164,132.704498 96.489929,133.033463 90.562981,133.075226 
	C84.030464,132.122940 77.957573,131.147552 71.507553,130.101501 
z"/>
<path fill="#1373B6" opacity="1.000000" stroke="none" 
	d="
M112.933365,126.613998 
	C99.227829,126.727013 85.570374,126.393188 71.517204,126.037048 
	C71.091301,123.312157 71.061127,120.609589 71.080215,117.460182 
	C81.027222,118.578461 90.887901,120.509727 100.842079,121.517525 
	C104.511505,121.889030 108.401421,120.082916 112.536209,119.174126 
	C112.914925,121.441193 112.948189,123.804176 112.933365,126.613998 
z"/>
</svg>